<svg xmlns="http://www.w3.org/2000/svg" xmlns:xlink="http://www.w3.org/1999/xlink" width="500" zoomAndPan="magnify" viewBox="0 0 375 374.999991" height="500" preserveAspectRatio="xMidYMid meet" version="1.0"><defs><clipPath id="01ab889a55"><path d="M 157 348 L 184 348 L 184 374.394531 L 157 374.394531 Z M 157 348 " clip-rule="nonzero"/></clipPath><clipPath id="49a9e15a84"><path d="M 288 155.980469 L 368 155.980469 L 368 284 L 288 284 Z M 288 155.980469 " clip-rule="nonzero"/></clipPath><clipPath id="7b2332c06f"><path d="M 59 175 L 284 175 L 284 374.394531 L 59 374.394531 Z M 59 175 " clip-rule="nonzero"/></clipPath><clipPath id="70e57ae23c"><path d="M 163 80.4375 L 179 80.4375 L 179 134 L 163 134 Z M 163 80.4375 " clip-rule="nonzero"/></clipPath><clipPath id="45f67777a4"><path d="M 82.125 146 L 117 146 L 117 156 L 82.125 156 Z M 82.125 146 " clip-rule="nonzero"/></clipPath><clipPath id="b3be59a0b1"><path d="M 275 139 L 289.125 139 L 289.125 154 L 275 154 Z M 275 139 " clip-rule="nonzero"/></clipPath></defs><path fill="#ffffff" d="M 52.523438 281.554688 L 82.140625 171.050781 C 82.464844 169.816406 81.753906 168.554688 80.523438 168.199219 L 35.1875 156.078125 C 33.953125 155.753906 32.691406 156.464844 32.367188 157.699219 L 2.78125 268.203125 C 2.421875 269.433594 3.167969 270.695312 4.367188 271.054688 L 49.703125 283.171875 C 50.933594 283.496094 52.199219 282.785156 52.523438 281.554688 " fill-opacity="1" fill-rule="nonzero"/><path fill="#ffffff" d="M 147.894531 331.003906 L 136.582031 342.347656 C 132.144531 346.949219 132.304688 354.273438 136.90625 358.710938 C 141.378906 362.988281 148.476562 362.988281 152.949219 358.710938 L 164.257812 347.371094 C 168.699219 342.769531 168.535156 335.445312 163.933594 331.003906 C 159.460938 326.726562 152.367188 326.695312 147.894531 331.003906 " fill-opacity="1" fill-rule="nonzero"/><g clip-path="url(#01ab889a55)"><path fill="#ffffff" d="M 180.816406 364.445312 C 184.449219 360.753906 184.382812 354.824219 180.6875 351.191406 C 177.027344 347.628906 171.226562 347.628906 167.5625 351.191406 L 160.238281 358.550781 C 156.644531 362.277344 156.742188 368.207031 160.46875 371.769531 C 164.097656 375.269531 169.863281 375.269531 173.492188 371.804688 L 180.816406 364.445312 " fill-opacity="1" fill-rule="nonzero"/></g><path fill="#ffffff" d="M 121.871094 309.679688 L 110.917969 320.632812 C 105.472656 326.304688 105.636719 335.28125 111.273438 340.757812 C 116.785156 346.074219 125.5 346.074219 131.011719 340.757812 L 141.964844 329.804688 C 147.40625 324.167969 147.246094 315.15625 141.605469 309.714844 C 136.097656 304.398438 127.378906 304.398438 121.871094 309.679688 " fill-opacity="1" fill-rule="nonzero"/><path fill="#ffffff" d="M 102.753906 321.703125 L 113.835938 310.589844 C 118.273438 305.988281 118.113281 298.664062 113.511719 294.222656 C 109.039062 289.914062 101.941406 289.914062 97.46875 294.222656 L 86.386719 305.304688 C 81.949219 309.941406 82.109375 317.265625 86.710938 321.671875 C 91.183594 325.980469 98.246094 325.980469 102.753906 321.671875 L 102.753906 321.703125 " fill-opacity="1" fill-rule="nonzero"/><g clip-path="url(#49a9e15a84)"><path fill="#ffffff" d="M 288.210938 171.050781 L 317.828125 281.554688 C 318.1875 282.785156 319.417969 283.496094 320.679688 283.171875 L 365.953125 271.054688 C 367.214844 270.730469 367.960938 269.464844 367.605469 268.234375 C 367.605469 268.203125 367.605469 268.203125 367.605469 268.203125 L 338.019531 157.699219 C 337.695312 156.464844 336.398438 155.722656 335.199219 156.046875 C 335.167969 156.046875 335.167969 156.046875 335.167969 156.046875 L 289.863281 168.199219 C 288.632812 168.519531 287.886719 169.785156 288.210938 171.015625 C 288.210938 171.015625 288.210938 171.015625 288.210938 171.050781 " fill-opacity="1" fill-rule="nonzero"/></g><path fill="#ffffff" d="M 145.300781 169.492188 C 159.460938 162.429688 175.828125 161.359375 190.800781 166.449219 C 203.988281 170.953125 217.535156 174.257812 231.304688 176.265625 C 248.835938 181.417969 267.277344 182.554688 285.292969 179.539062 L 310.699219 274.292969 C 299.554688 278.3125 289.605469 285.054688 281.761719 293.898438 L 206.96875 219.105469 C 193.328125 205.496094 171.648438 204.328125 156.644531 216.386719 C 146.371094 224.617188 134.996094 231.421875 122.84375 236.574219 C 117.011719 239.035156 110.238281 236.316406 107.742188 230.449219 C 106.542969 227.628906 106.511719 224.453125 107.679688 221.601562 C 115.875 201.476562 128.773438 183.589844 145.300781 169.492188 " fill-opacity="1" fill-rule="nonzero"/><g clip-path="url(#7b2332c06f)"><path fill="#ffffff" d="M 103.011719 219.691406 C 99.542969 228.179688 103.628906 237.835938 112.117188 241.304688 C 116.199219 242.957031 120.769531 242.925781 124.820312 241.207031 C 137.394531 235.859375 149.15625 228.828125 159.785156 220.304688 C 172.8125 209.839844 191.609375 210.875 203.40625 222.671875 L 280.335938 299.636719 C 285.164062 304.527344 285.101562 312.4375 280.207031 317.230469 C 275.3125 321.996094 267.566406 321.996094 262.707031 317.230469 L 223.59375 278.085938 C 222.554688 277.144531 220.9375 277.242188 220.027344 278.28125 C 219.152344 279.21875 219.152344 280.679688 220.027344 281.648438 L 257.359375 319.015625 C 262.125 323.972656 261.960938 331.847656 256.972656 336.609375 C 252.175781 341.210938 244.558594 341.210938 239.765625 336.609375 L 207.132812 303.976562 C 206.09375 303.070312 204.507812 303.136719 203.566406 304.171875 C 202.691406 305.113281 202.691406 306.601562 203.566406 307.542969 L 232.246094 336.253906 C 237.140625 341.113281 237.140625 349.023438 232.246094 353.882812 C 227.386719 358.742188 219.511719 358.742188 214.617188 353.851562 L 189.144531 328.347656 C 188.109375 327.441406 186.519531 327.503906 185.582031 328.542969 C 184.707031 329.480469 184.707031 330.972656 185.582031 331.910156 L 206.710938 353.039062 C 211.539062 357.933594 211.472656 365.839844 206.613281 370.667969 C 201.71875 375.464844 193.910156 375.464844 189.082031 370.667969 L 185.355469 366.941406 C 190.410156 360.785156 189.46875 351.679688 183.3125 346.65625 C 180.167969 344.097656 176.117188 342.996094 172.101562 343.578125 C 174.53125 334.699219 169.3125 325.59375 160.433594 323.164062 C 157.292969 322.289062 153.921875 322.382812 150.84375 323.421875 C 152.851562 312.988281 146.046875 302.875 135.613281 300.835938 C 131.042969 299.960938 126.277344 300.738281 122.261719 303.101562 C 122.648438 293.933594 115.519531 286.1875 106.347656 285.796875 C 101.714844 285.605469 97.179688 287.355469 93.90625 290.660156 L 89.078125 295.488281 C 83.242188 284.179688 72.128906 276.53125 59.492188 275.105469 L 85.316406 178.566406 C 100.96875 181.257812 117.042969 180.027344 132.078125 175.003906 C 119.636719 187.898438 109.75 203.097656 103.011719 219.691406 " fill-opacity="1" fill-rule="nonzero"/></g><path fill="#ffffff" d="M 250.964844 150.363281 C 251.300781 149.699219 251.585938 149 251.976562 148.375 C 261.550781 133.015625 272.359375 118.539062 283.566406 104.347656 C 284.574219 103.070312 285.519531 101.3125 287.789062 102.199219 C 288.636719 104.09375 287.269531 105.320312 286.394531 106.519531 C 279.523438 115.910156 272.6875 125.339844 265.582031 134.550781 C 261.667969 139.625 257.257812 144.316406 253.050781 149.164062 C 252.558594 149.726562 251.941406 150.183594 251.390625 150.695312 C 251.25 150.589844 251.109375 150.476562 250.964844 150.371094 Z M 250.964844 150.363281 " fill-opacity="1" fill-rule="nonzero"/><path fill="#ffffff" d="M 217.4375 131.691406 C 217.6875 129.382812 217.917969 127.078125 218.1875 124.769531 C 219.652344 112.160156 221.929688 99.710938 225.457031 87.507812 C 225.710938 86.617188 225.984375 85.675781 226.519531 84.953125 C 226.832031 84.527344 227.757812 84.214844 228.253906 84.359375 C 228.714844 84.496094 229.207031 85.285156 229.261719 85.839844 C 229.363281 86.742188 229.242188 87.714844 229.023438 88.609375 C 225.71875 102.222656 222.394531 115.828125 219.042969 129.429688 C 218.835938 130.273438 218.394531 131.058594 218.0625 131.867188 C 217.855469 131.808594 217.644531 131.75 217.4375 131.699219 Z M 217.4375 131.691406 " fill-opacity="1" fill-rule="nonzero"/><g clip-path="url(#70e57ae23c)"><path fill="#ffffff" d="M 164.136719 80.453125 C 168.867188 98.273438 173.429688 115.460938 178.128906 133.15625 C 170.667969 122.597656 161.570312 88.820312 164.136719 80.453125 Z M 164.136719 80.453125 " fill-opacity="1" fill-rule="nonzero"/></g><path fill="#ffffff" d="M 117.363281 103.996094 C 119.710938 102.886719 120.476562 104.554688 121.34375 105.796875 C 125.558594 111.839844 129.789062 117.871094 133.898438 123.980469 C 136.859375 128.390625 139.632812 132.921875 142.953125 138.121094 C 136.15625 133.535156 120.792969 112.828125 117.367188 103.996094 Z M 117.363281 103.996094 " fill-opacity="1" fill-rule="nonzero"/><g clip-path="url(#45f67777a4)"><path fill="#ffffff" d="M 82.121094 146.386719 C 85.050781 145.445312 108.34375 152.410156 116.433594 155.859375 C 113.960938 155.859375 112.367188 155.984375 110.796875 155.839844 C 101.804688 155.011719 93.320312 152.355469 85.1875 148.527344 C 84.074219 148.003906 83.136719 147.109375 82.121094 146.386719 Z M 82.121094 146.386719 " fill-opacity="1" fill-rule="nonzero"/></g><g clip-path="url(#b3be59a0b1)"><path fill="#ffffff" d="M 275.578125 153.738281 C 276.511719 147.945312 279.953125 144.863281 283.632812 141.992188 C 285.128906 140.824219 286.574219 139.191406 289.101562 140.078125 C 288.984375 140.769531 289.101562 141.671875 288.742188 141.945312 C 284.234375 145.367188 281.542969 150.820312 275.578125 153.738281 Z M 275.578125 153.738281 " fill-opacity="1" fill-rule="nonzero"/></g><path fill="#ffffff" d="M 197.042969 121.566406 C 195.554688 116.964844 195.261719 112.21875 195.511719 107.40625 C 195.550781 106.660156 195.628906 106.660156 197.621094 106.140625 C 197.792969 108.152344 198.054688 110.128906 198.109375 112.113281 C 198.1875 115.28125 198.132812 118.457031 198.132812 121.625 L 197.042969 121.5625 Z M 197.042969 121.566406 " fill-opacity="1" fill-rule="nonzero"/><path fill="#ffffff" d="M 248.144531 112.988281 C 247.289062 117.957031 245.617188 122.191406 242.148438 126.011719 C 242.03125 120 244.667969 114.007812 248.144531 112.988281 Z M 248.144531 112.988281 " fill-opacity="1" fill-rule="nonzero"/><path fill="#ffffff" d="M 121.722656 140.261719 C 118.007812 141.183594 116.773438 140.617188 114.59375 136.976562 C 117.414062 136.210938 119.460938 137.15625 121.722656 140.261719 Z M 121.722656 140.261719 " fill-opacity="1" fill-rule="nonzero"/><path fill="#ffffff" d="M 149.890625 114.371094 C 153.261719 117.8125 154.296875 121.59375 155.3125 125.382812 C 151.808594 121.535156 150.222656 118.328125 149.890625 114.371094 Z M 149.890625 114.371094 " fill-opacity="1" fill-rule="nonzero"/></svg>