<svg xmlns="http://www.w3.org/2000/svg" xmlns:xlink="http://www.w3.org/1999/xlink" width="500" zoomAndPan="magnify" viewBox="0 0 375 374.999991" height="500" preserveAspectRatio="xMidYMid meet" version="1.0"><defs><clipPath id="d3e990e0d5"><path d="M 0 23.4375 L 375 23.4375 L 375 351.9375 L 0 351.9375 Z M 0 23.4375 " clip-rule="nonzero"/></clipPath></defs><g clip-path="url(#d3e990e0d5)"><path fill="#ffffff" d="M 265.382812 307.558594 L 265.382812 351.570312 L 138.984375 351.570312 L 138.984375 307.558594 Z M 251.421875 187.464844 C 251.769531 194.746094 257.894531 200.597656 265.183594 200.597656 C 272.71875 200.597656 278.929688 194.355469 278.929688 186.824219 L 278.929688 154.863281 C 278.929688 147.332031 272.722656 141.089844 265.183594 141.089844 C 257.632812 141.089844 251.429688 147.3125 251.429688 154.863281 Z M 211.835938 143.054688 L 211.835938 186.824219 C 211.835938 194.355469 218.046875 200.597656 225.582031 200.597656 C 233.121094 200.597656 239.332031 194.355469 239.332031 186.824219 C 239.375 186.824219 239.277344 143.054688 239.355469 143.054688 C 239.355469 135.515625 233.117188 129.304688 225.582031 129.304688 C 218.03125 129.304688 211.835938 135.503906 211.835938 143.054688 Z M 172.238281 129.160156 L 172.238281 144.742188 L 175.394531 144.742188 C 185.085938 144.742188 193.804688 149.046875 199.738281 155.84375 C 199.738281 146.949219 199.738281 138.054688 199.738281 129.160156 C 199.738281 121.628906 193.527344 115.386719 185.988281 115.386719 C 178.449219 115.386719 172.238281 121.628906 172.238281 129.160156 Z M 134.742188 144.742188 L 160.140625 144.742188 L 160.140625 137.5 C 160.140625 129.949219 153.941406 123.75 146.390625 123.75 C 138.839844 123.75 132.640625 129.949219 132.640625 137.5 L 132.640625 144.78125 C 133.339844 144.753906 134.039062 144.742188 134.742188 144.742188 Z M 342.585938 116.660156 C 345.46875 114.992188 349.160156 115.976562 350.832031 118.859375 C 352.503906 121.742188 351.519531 125.433594 348.636719 127.105469 L 320.464844 143.367188 C 317.582031 145.039062 313.890625 144.054688 312.222656 141.171875 C 310.550781 138.285156 311.535156 134.59375 314.417969 132.925781 Z M 32.390625 305.199219 C 29.507812 306.855469 25.824219 305.859375 24.167969 302.976562 C 22.511719 300.09375 23.503906 296.414062 26.390625 294.753906 L 54.558594 278.492188 C 57.441406 276.835938 61.121094 277.828125 62.78125 280.714844 C 64.4375 283.597656 63.441406 287.277344 60.558594 288.933594 Z M 6.046875 215.039062 C 2.707031 215.039062 0 212.332031 0 208.992188 C 0 205.652344 2.707031 202.941406 6.046875 202.941406 L 38.574219 202.941406 C 41.914062 202.941406 44.625 205.652344 44.625 208.992188 C 44.625 212.332031 41.914062 215.039062 38.574219 215.039062 Z M 28.304688 123.746094 C 25.417969 122.078125 24.4375 118.386719 26.105469 115.5 C 27.777344 112.617188 31.46875 111.632812 34.351562 113.304688 L 62.519531 129.566406 C 65.402344 131.238281 66.386719 134.929688 64.71875 137.8125 C 63.046875 140.695312 59.355469 141.679688 56.472656 140.011719 Z M 274.683594 51.757812 C 276.339844 48.875 280.019531 47.878906 282.90625 49.535156 C 285.789062 51.191406 286.78125 54.875 285.125 57.757812 L 268.863281 85.925781 C 267.207031 88.808594 263.523438 89.804688 260.640625 88.148438 C 257.757812 86.492188 256.761719 82.808594 258.417969 79.925781 Z M 93.230469 55.84375 C 91.5625 52.960938 92.542969 49.269531 95.429688 47.597656 C 98.3125 45.925781 102.003906 46.910156 103.675781 49.792969 L 119.9375 77.964844 C 121.605469 80.847656 120.625 84.539062 117.738281 86.210938 C 114.855469 87.878906 111.164062 86.894531 109.496094 84.011719 Z M 183.390625 29.476562 C 183.390625 26.136719 186.097656 23.429688 189.4375 23.429688 C 192.777344 23.429688 195.488281 26.136719 195.488281 29.476562 L 195.488281 62.003906 C 195.488281 65.34375 192.777344 68.054688 189.4375 68.054688 C 186.097656 68.054688 183.390625 65.34375 183.390625 62.003906 Z M 346.671875 298.113281 C 349.558594 299.769531 350.550781 303.453125 348.894531 306.335938 C 347.238281 309.21875 343.554688 310.210938 340.671875 308.554688 L 312.503906 292.292969 C 309.621094 290.636719 308.625 286.953125 310.28125 284.070312 C 311.941406 281.1875 315.621094 280.191406 318.503906 281.847656 Z M 368.953125 206.820312 C 372.292969 206.820312 375 209.527344 375 212.867188 C 375 216.207031 372.292969 218.917969 368.953125 218.917969 L 336.425781 218.917969 C 333.085938 218.917969 330.375 216.207031 330.375 212.867188 C 330.375 209.527344 333.085938 206.820312 336.425781 206.820312 Z M 138.984375 295.460938 C 138.652344 265.5 90.714844 263.328125 93.792969 217.621094 L 95.75 188.59375 C 97.03125 169.554688 115.65625 156.835938 134.742188 156.835938 L 175.394531 156.835938 C 186.515625 156.835938 195.613281 165.9375 195.613281 177.058594 C 195.613281 188.175781 186.515625 197.277344 175.394531 197.277344 C 160.792969 197.277344 146.1875 197.277344 131.585938 197.277344 C 128.242188 197.277344 125.535156 199.984375 125.535156 203.324219 C 125.535156 206.664062 128.242188 209.371094 131.585938 209.371094 L 143.019531 209.371094 C 182.203125 209.371094 182.152344 232.269531 182.117188 249.859375 C 182.105469 256.0625 182.089844 240.980469 182.089844 251.675781 C 182.089844 255.015625 184.800781 257.722656 188.140625 257.722656 C 191.480469 257.722656 194.1875 255.015625 194.1875 251.675781 C 194.1875 239.785156 194.15625 254.84375 194.167969 249.859375 C 194.195312 235.882812 194.226562 219.328125 182.511719 208.578125 C 190.238281 206.832031 196.933594 202.300781 201.472656 196.101562 C 205.226562 205.753906 214.632812 212.644531 225.570312 212.644531 C 233.136719 212.644531 240.515625 209.179688 245.382812 203.398438 C 254.351562 214.101562 270.015625 215.707031 280.945312 207.273438 C 287.492188 246.117188 289.378906 270.40625 265.382812 295.460938 Z M 161.726562 320.851562 C 156.914062 320.851562 153.011719 324.753906 153.011719 329.5625 C 153.011719 334.375 156.914062 338.277344 161.726562 338.277344 C 166.535156 338.277344 170.4375 334.375 170.4375 329.5625 C 170.4375 324.75 166.535156 320.851562 161.726562 320.851562 Z M 161.726562 320.851562 " fill-opacity="1" fill-rule="evenodd"/></g></svg>