<svg width="703" height="594" viewBox="0 0 703 594" fill="none" xmlns="http://www.w3.org/2000/svg">
<g clip-path="url(#clip0_218_153)">
<path d="M135.349 98.532C138.749 91.8432 144.195 86.2907 147.522 79.5664C150.85 72.842 151.498 63.8414 145.954 58.6942C141.246 54.3242 133.87 54.2626 128.241 51.0965C113.896 43.0321 113.912 17.4155 97.5187 15.2021C89.5444 14.1262 82.329 19.9607 77.5094 26.2537C72.6899 32.5468 68.849 39.8873 62.1643 44.2644C54.5967 49.2197 44.8144 49.4353 36.4114 52.8775C20.3012 59.4762 11.8546 76.4453 4.79218 92.0411C0.242186 102.087 -4.41102 112.923 -2.30057 123.711C-6.88941 126.497 -4.84453 133.99 -0.26418 136.789C4.31617 139.588 10.0671 139.526 15.3262 140.738C26.3764 143.286 35.4302 151.877 39.7216 162.134C43.0657 170.132 43.7494 178.914 44.3954 187.528L47.7541 232.375C48.252 239.025 48.9053 246.093 53.0546 251.392C57.2039 256.691 66.1873 258.912 70.8502 254.038C75.3067 249.38 73.2994 242.006 73.2096 235.633C73.1197 229.261 79.0224 221.326 84.5888 224.66L86.5523 220.313C99.2662 215.871 110.399 207.948 118.618 197.493C126.837 187.037 131.794 174.492 132.896 161.358C134.313 140.201 125.684 117.518 135.349 98.532Z" fill="#E6E6E6"/>
<path d="M148.338 232.674C149.567 231.545 150.438 230.096 150.851 228.499C151.263 226.902 151.198 225.224 150.665 223.661C150.131 222.099 149.151 220.718 147.839 219.682C146.528 218.645 144.94 217.997 143.263 217.812L143.283 218.53C140.89 219.893 138.161 220.593 135.39 220.554C132.629 220.511 129.881 220.936 127.269 221.809C125.97 222.27 124.845 223.103 124.041 224.2C123.237 225.297 122.792 226.605 122.765 227.954C122.917 228.987 123.322 229.97 123.946 230.818C124.57 231.666 125.395 232.354 126.35 232.825C128.267 233.746 130.326 234.356 132.444 234.631C137.909 235.634 144.298 236.393 148.338 232.674Z" fill="#E6E6E6"/>
<path d="M254.811 98.8863C257.099 97.3692 259.042 95.4076 260.518 93.1241C261.233 91.969 261.572 90.63 261.493 89.283C261.414 87.936 260.919 86.6439 260.074 85.5762C258.352 84.1187 256.136 83.3378 253.858 83.3853C247.67 82.9346 241.451 83.6502 235.54 85.4933L253.747 101.234L254.811 98.8863Z" fill="#E6E6E6"/>
<path d="M224.459 112.533C226.912 115.175 226.13 119.274 225.431 122.774C224.731 126.274 224.647 130.648 227.738 132.558C230.409 134.217 234.165 132.862 236.117 130.432C237.864 127.842 238.929 124.871 239.218 121.782C240.179 117.291 240.613 112.707 240.512 108.12C240.396 103.499 238.725 99.0443 235.757 95.4416C233.651 93.098 230.845 91.4565 227.734 90.7474C224.624 90.0383 221.363 90.2971 218.411 91.4876L221.23 91.3513C219.181 93.9196 217.626 96.83 216.643 99.9407C216.172 101.504 216.139 103.161 216.547 104.741C216.954 106.32 217.788 107.765 218.961 108.924C220.639 110.335 222.969 110.928 224.459 112.533Z" fill="#E6E6E6"/>
<path d="M362.815 68.2211L363.315 66.7139C361.217 67.8968 359.6 69.7473 358.734 71.9553C357.869 74.1632 357.807 76.5944 358.56 78.8414C360.172 77.6003 361.417 75.9619 362.165 74.095C362.913 72.2282 363.137 70.2006 362.815 68.2211Z" fill="#E6E6E6"/>
<path d="M335.558 89.7836C338.228 88.3082 340.507 86.2427 342.212 83.7529C343.916 81.263 344.999 78.4181 345.373 75.4462C345.663 73.5988 345.443 71.7095 344.738 69.9719C344.376 69.109 343.801 68.3468 343.064 67.7531C342.328 67.1594 341.452 66.7526 340.515 66.5688L339.374 68.3225C337.735 66.9468 334.985 68.3616 334.297 70.3606C333.852 72.4355 334.037 74.5918 334.828 76.5659C335.618 78.5521 335.583 80.7607 334.729 82.7215C333.808 83.8747 332.773 84.936 331.638 85.89C331.084 86.3824 330.722 87.0474 330.614 87.7715C330.507 88.4955 330.66 89.2335 331.048 89.8594C332.118 91.0585 334.131 90.5561 335.558 89.7836Z" fill="#E6E6E6"/>
<path d="M323.939 79.9834C324.918 78.2675 325.381 76.3165 325.274 74.3551L322.777 73.5908C321.179 74.222 319.763 75.2213 318.648 76.5033C318.309 76.8344 318.05 77.2344 317.888 77.6748C317.727 78.1151 317.667 78.5849 317.713 79.0504C317.76 79.516 317.911 79.9658 318.156 80.3676C318.401 80.7694 318.735 81.1133 319.132 81.3747C319.53 81.636 319.982 81.8084 320.456 81.8793C320.929 81.9503 321.413 81.9182 321.873 81.7852C322.332 81.6523 322.756 81.4218 323.114 81.1103C323.471 80.7988 323.754 80.414 323.941 79.9834H323.939Z" fill="#E6E6E6"/>
<path d="M445.998 67.6543C446.224 67.8391 446.449 68.0287 446.674 68.2148C446.874 68.1745 447.063 68.0963 447.266 68.0761L445.998 67.6543Z" fill="#E6E6E6"/>
<path d="M441.997 89.0411L448.874 83.6118C450.093 82.7707 451.131 81.7057 451.931 80.4766C452.477 79.313 452.713 78.0334 452.616 76.7569C452.52 75.4805 452.093 74.2487 451.377 73.1763C450.108 71.2758 448.518 69.5987 446.675 68.2163C444.65 68.6835 442.871 69.8594 441.675 71.5211C440.479 73.1828 439.949 75.2149 440.186 77.2323C440.6 79.7988 442.25 82.5419 440.904 84.7825C440.379 85.6546 439.476 86.2482 438.871 87.0694C438.266 87.8905 438.07 89.2022 438.901 89.803C439.824 90.4736 441.102 89.7473 441.997 89.0411Z" fill="#E6E6E6"/>
<path d="M447.011 100.12C447.863 100.164 448.716 100.03 449.51 99.7248C450.305 99.4198 451.023 98.9515 451.615 98.3517C454.68 95.9014 457.361 93.0273 459.574 89.8203L444.104 94.6014L445.711 96.4368C444.277 97.3469 445.336 99.8055 447.011 100.12Z" fill="#E6E6E6"/>
<path d="M461.47 110.482C461.785 111.267 462.355 111.93 463.092 112.369C463.829 112.808 464.693 113 465.553 112.915C466.409 112.803 467.23 112.51 467.957 112.056C468.684 111.602 469.301 110.997 469.763 110.285C470.547 109.157 471.008 107.845 471.099 106.484C471.189 105.123 470.905 103.764 470.276 102.546C469.648 101.328 468.697 100.297 467.522 99.558C466.348 98.8192 464.993 98.4 463.597 98.3438L465.021 100.467C465.384 104.092 460.335 107.013 461.47 110.482Z" fill="#E6E6E6"/>
<path d="M561.662 150.179C563.057 151.195 564.753 151.741 566.493 151.737C568.234 151.733 569.926 151.178 571.316 150.156C572.218 149.405 572.95 148.48 573.469 147.44C573.987 146.399 574.279 145.265 574.328 144.11C574.376 142.954 574.179 141.801 573.75 140.722C573.32 139.644 572.667 138.664 571.831 137.844L569.196 139.279C567.735 138.362 565.966 138.035 564.262 138.365C562.559 138.695 561.052 139.657 560.061 141.049C559.171 142.508 558.844 144.229 559.138 145.902C559.431 147.575 560.326 149.091 561.662 150.179Z" fill="#E6E6E6"/>
<path d="M592.299 153.563C593.583 153.199 594.749 152.52 595.686 151.591C596.624 150.662 597.301 149.513 597.653 148.255L592.53 147.599C591.105 146.549 589.446 145.842 587.688 145.536C586.807 145.407 585.907 145.578 585.139 146.019C584.371 146.461 583.782 147.147 583.471 147.962C583.362 148.655 583.437 149.364 583.689 150.02C583.94 150.677 584.36 151.26 584.908 151.714C585.875 152.614 587.062 153.257 588.356 153.581C589.65 153.904 591.008 153.899 592.299 153.564V153.563Z" fill="#E6E6E6"/>
<path d="M571.147 163.56C571.237 164.373 571.563 165.144 572.086 165.784C572.608 166.423 573.307 166.904 574.099 167.17C574.965 167.571 575.934 167.709 576.881 167.566C577.828 167.423 578.71 167.006 579.411 166.368C579.72 166.027 579.941 165.62 580.057 165.179C580.172 164.738 580.178 164.276 580.074 163.833C579.97 163.389 579.759 162.976 579.459 162.628C579.158 162.28 578.777 162.007 578.347 161.831L574.506 161.15C573.02 160.394 571.123 161.925 571.147 163.56Z" fill="#E6E6E6"/>
<path d="M348.261 189.911L345.288 187.262C346.079 188.337 347.092 189.24 348.261 189.911Z" fill="#E6E6E6"/>
<path d="M325.552 174.313C327.382 182.607 336.538 189.361 344.849 186.873L345.287 187.264C342.641 183.73 342.193 178.496 342.811 173.954C343.959 166.162 347.099 158.778 351.941 152.483C356.784 146.188 363.174 141.184 370.52 137.933C372.533 137.32 374.332 136.176 375.72 134.627C376.904 132.937 376.462 130.038 374.422 129.56C373.314 129.435 372.195 129.686 371.254 130.271L355.808 137.689C348.006 141.435 340.05 145.29 333.923 151.309C327.795 157.329 323.722 166.019 325.552 174.313Z" fill="#E6E6E6"/>
<path d="M76.226 459.526C61.8349 449.473 46.0725 441.436 29.3976 435.647C19.1489 432.092 8.13642 429.379 -2.53851 431.398C-8.39448 432.58 -13.8821 435.093 -18.5556 438.734C-23.2291 442.374 -26.9566 447.039 -29.4353 452.349C-31.8234 457.698 -32.9464 463.503 -32.721 469.333C-32.4957 475.163 -30.9277 480.869 -28.1336 486.027C-23.2096 495.032 -14.6815 502.203 -11.8304 512.023C-9.90812 518.643 -10.8189 525.692 -11.7442 532.513L-17.4149 574.335C-19.1356 587.026 -20.815 600.234 -16.6949 612.389C-12.5747 624.544 -0.826372 635.258 12.2274 633.969L14.8138 633.779C6.17894 628.05 3.7637 616.188 6.32952 606.313C8.89534 596.438 15.4259 588.065 21.7961 579.991L78.5149 508.123C86.165 498.431 94.2547 486.451 90.1722 474.884C87.8517 468.308 82.0206 463.575 76.226 459.526Z" fill="#E6E6E6"/>
<path d="M-52.6196 398.968C-54.5346 398.336 -56.5564 399.742 -57.682 401.381C-58.592 403.141 -59.6612 404.818 -60.8769 406.392C-63.8216 409.354 -69.1888 408.762 -72.3654 406.036C-75.542 403.311 -76.9178 399.096 -77.5347 395.017C-78.2742 390.117 -77.9548 384.651 -74.641 380.901C-71.23 377.039 -65.6224 376.004 -60.4628 375.201C-55.1332 374.372 -49.1625 373.682 -44.7983 376.777C-42.0479 378.726 -40.445 381.872 -37.8974 384.068C-35.3498 386.264 -30.8181 387.095 -28.9007 384.357C-28.3988 383.386 -28.1451 382.312 -28.1612 381.224C-28.1773 380.137 -28.4626 379.07 -28.9929 378.114C-30.0705 376.209 -30.7188 374.101 -30.8946 371.932C-30.7658 368.921 -28.2886 366.529 -25.7532 364.807C-23.2177 363.086 -20.3556 361.601 -18.692 359.063C-16.6459 355.939 -16.8633 351.917 -15.5943 348.424C-12.5234 339.968 -1.56065 336.207 1.63175 327.794C2.40097 326.025 2.48722 324.043 1.87459 322.216C0.538856 318.865 -3.0749 319.522 -3.2959 315.427C-3.50841 311.51 -0.159341 307.667 3.24435 306.032C7.93641 303.781 13.4056 303.96 18.6344 303.822C23.8632 303.685 29.4951 303.007 33.3274 299.539C34.5693 298.29 35.5269 296.799 36.1376 295.164C36.7482 293.529 36.9982 291.786 36.871 290.05C36.7439 288.314 36.2426 286.624 35.3999 285.09C34.5572 283.556 33.3921 282.213 31.9808 281.149C29.1211 279.223 25.5074 278.552 22.7254 276.521C19.2598 273.991 17.6253 269.776 14.9211 266.475C12.6761 263.962 10.1072 261.742 7.27825 259.872L0.331215 254.842C-3.8557 251.811 -8.21137 248.703 -13.3054 247.622C-18.3994 246.542 -24.466 248.07 -27.0173 252.506C-28.0236 254.483 -28.5732 256.652 -28.6274 258.859C-28.8597 264.054 -28.6375 269.26 -27.9632 274.419L-26.7016 286.877C-26.3251 290.6 -26.7295 295.508 -30.4331 296.475C-38.6491 298.618 -35.8768 286.759 -37.6983 283.133C-40.4912 277.574 -53.3021 274.905 -58.781 272.587C-62.2029 271.14 -65.813 269.543 -67.8785 266.514C-70.4504 262.744 -69.9222 257.613 -67.9053 253.535C-65.8883 249.456 -62.6036 246.136 -59.6189 242.668C-56.577 239.134 -53.806 235.384 -51.0386 231.64L-41.4104 218.612C-37.2939 213.043 -32.9674 206.245 -35.3049 199.772C-35.8115 198.906 -36.5689 198.204 -37.4821 197.756C-38.3954 197.307 -39.4239 197.132 -40.4389 197.251C-41.4539 197.371 -42.4101 197.78 -43.188 198.427C-43.9658 199.074 -44.5306 199.931 -44.8117 200.891C-45.8365 204.387 -43.1031 208.851 -45.7175 211.442C-46.6138 212.146 -47.7351 212.52 -48.8852 212.498C-50.0354 212.476 -51.1411 212.061 -52.0088 211.324C-53.704 209.798 -54.9955 207.894 -55.7732 205.776C-58.9413 198.903 -62.028 191.992 -65.2811 185.159C-66.3097 182.998 -67.3819 179.3 -70.5026 179.664C-73.2069 179.98 -74.6677 183.827 -74.5742 186.063C-74.437 189.312 -72.5973 192.215 -71.1912 195.163C-69.785 198.111 -68.8014 201.65 -70.3411 204.532C-72.2962 208.18 -77.2493 209 -81.4666 208.879C-89.4159 208.644 -97.205 206.639 -104.238 203.016C-104.422 206.829 -104.606 210.641 -104.79 214.454L-121.583 207.595L-124.845 206.263C-129.567 204.334 -134.295 202.404 -139.157 200.837C-141.917 199.949 -144.715 199.178 -147.511 198.409L-152.611 197.006C-155.966 195.846 -159.525 195.351 -163.079 195.549C-166.813 196.006 -170.142 197.964 -173.596 199.426C-181.299 202.689 -191.264 199.406 -199.52 199.348C-202.795 194.683 -207.216 190.893 -212.379 188.326C-217.542 185.759 -223.283 184.496 -229.075 184.653C-234.868 184.809 -240.528 186.381 -245.538 189.223C-250.547 192.065 -254.747 196.088 -257.752 200.923C-259.203 203.372 -260.496 205.908 -261.622 208.515L-264.983 215.862C-266.626 219.456 -268.305 223.242 -267.982 227.164C-267.659 231.086 -264.582 235.093 -260.546 235.057C-270.055 239.258 -272.033 253.958 -263.959 260.414C-261.724 262.201 -258.981 263.371 -256.97 265.391C-255.451 266.922 -254.435 268.86 -254.052 270.958C-253.67 273.055 -253.938 275.217 -254.823 277.165C-255.708 279.112 -257.169 280.758 -259.018 281.89C-260.868 283.023 -263.022 283.59 -265.204 283.52C-259.57 285.645 -253.365 285.842 -247.602 284.081C-241.838 282.319 -236.858 278.703 -233.473 273.822C-230.021 268.548 -228.521 261.958 -223.824 257.696C-217.604 252.053 -207.331 252.49 -200.159 256.928C-192.986 261.367 -188.448 268.923 -185.326 276.631C-181.236 286.732 -178.618 298.275 -169.904 305.031C-165.691 308.298 -160.355 310.136 -156.629 313.926C-151.325 319.325 -150.409 327.473 -150.528 334.951C-150.647 342.429 -151.472 350.188 -148.681 357.153C-145.889 364.118 -137.887 369.847 -130.709 367.225C-132.765 373.178 -132.701 379.633 -130.528 385.547C-128.355 391.46 -124.2 396.484 -118.736 399.806L-122.658 376.066C-116.142 377.857 -111.918 384.024 -109.479 390.186C-107.041 396.347 -105.751 403.012 -102.215 408.645C-96.6478 417.516 -86.5654 421.338 -76.3094 421.305C-65.2301 421.268 -61.0238 416.114 -53.7234 408.522C-52.2564 407.227 -51.143 405.596 -50.4837 403.775C-50.186 402.858 -50.2382 401.866 -50.6307 400.982C-51.0232 400.099 -51.7295 399.384 -52.6196 398.968Z" fill="#E6E6E6"/>
<path d="M-61.6228 110.585C-56.9077 113.297 -51.0026 115.167 -48.7622 120.04L-47.469 120.448L-51.6984 125.576C-53.4409 127.689 -55.2732 130.043 -55.232 132.755C-55.1761 136.489 -51.4944 139.306 -47.7749 140.186C-43.8058 140.983 -39.6749 140.312 -36.1839 138.305C-32.6929 136.297 -30.0909 133.095 -28.8829 129.321C-28.4409 127.746 -28.2575 126.113 -27.8701 124.527C-26.7394 120.761 -25.0327 117.183 -22.8077 113.914L14.758 52.2459C16.3171 49.6853 17.9249 46.6235 16.7518 43.8733C16.1259 42.7104 15.1574 41.7569 13.9712 41.1358C12.785 40.5147 11.4354 40.2545 10.0962 40.3885C7.4236 40.7059 4.84559 41.5527 2.52023 42.8768C1.48729 41.106 0.0292792 39.6062 -1.72857 38.5064C-3.48641 37.4065 -5.49157 36.7395 -7.57184 36.5625C-11.7317 36.2491 -15.916 36.6045 -19.9577 37.6147C-29.0888 38.9592 -37.8938 41.9109 -45.9438 46.3261C-50.3481 48.4981 -55.1943 51.1842 -56.4718 55.8326C-58.0431 61.5534 -52.9782 67.3843 -47.1472 69.029C-41.3161 70.6736 -35.0916 69.292 -29.1888 67.908C-28.5217 70.7 -28.7998 73.6277 -29.9814 76.2525C-31.163 78.8772 -33.1846 81.0576 -35.7431 82.4669C-38.3016 83.8761 -41.2592 84.4383 -44.1727 84.0692C-47.0862 83.7001 -49.7987 82.4195 -51.9036 80.4195C-56.1342 76.4003 -58.2058 69.4212 -64.015 68.3844C-69.8048 67.3499 -74.407 73.3764 -75.6857 78.9834C-76.9357 85.0224 -76.2576 91.2902 -73.743 96.9414C-71.2284 102.593 -66.9981 107.355 -61.6228 110.587V110.585Z" fill="#E6E6E6"/>
<path d="M11.0021 209.499C8.21252 201.83 4.5465 194.491 0.0733477 187.623C-3.31435 182.191 -7.49634 177.27 -12.3404 173.016C-16.7688 169.284 -21.8591 166.375 -27.3602 164.431C-32.7031 162.547 -38.6446 161.616 -44.0422 163.334C-49.4398 165.052 -54.0323 169.949 -53.923 175.488C-53.8016 181.613 -48.3105 186.404 -42.5863 188.921C-36.862 191.437 -30.4955 192.532 -25.1003 195.657C-21.4285 197.83 -18.3599 200.849 -16.1642 204.451C-13.9685 208.052 -12.713 212.124 -12.508 216.31L-11.148 218.504C-14.2289 219.499 -17.1023 221.024 -19.6323 223.007C-20.8851 224.016 -21.8428 225.329 -22.4087 226.815C-22.9746 228.301 -23.1285 229.906 -22.8551 231.468C-21.9116 235.177 -18.0307 237.305 -14.5213 239.002L4.933 248.404C1.63131 238.797 12.441 229.857 13.0397 219.741C13.063 216.226 12.3691 212.741 10.9984 209.489L11.0021 209.499Z" fill="#E6E6E6"/>
<path d="M31.0988 308.293C30.5109 308.446 29.9603 308.712 29.4797 309.077C28.9991 309.441 28.5982 309.895 28.3007 310.413C28.0032 310.931 27.8151 311.502 27.7476 312.092C27.6801 312.682 27.7345 313.28 27.9076 313.849L32.1079 314.133L36.375 312.043C36.289 311.455 36.0832 310.89 35.7697 310.381C35.4561 309.872 35.0412 309.43 34.5495 309.08C34.0577 308.731 33.4991 308.481 32.9066 308.345C32.3141 308.21 31.6998 308.192 31.1 308.292L31.0988 308.293Z" fill="#E6E6E6"/>
<path d="M14.0293 313.362C12.8269 314.194 11.8615 315.311 11.2241 316.608C10.5868 317.906 10.2985 319.34 10.3864 320.776C10.5232 322.208 11.1233 323.56 12.1 324.637C13.0767 325.714 14.3793 326.46 15.8193 326.767C17.2726 326.988 18.758 326.663 19.9752 325.858C21.1925 325.052 22.0507 323.825 22.3765 322.425C23.0869 318.187 18.4179 315.079 16.7397 311.11L14.0293 313.362Z" fill="#E6E6E6"/>
<path d="M177.149 285.365C177.592 288.548 174.653 291.335 174.544 294.545C174.414 298.353 178.663 301.316 182.549 300.943C184.478 300.617 186.303 299.859 187.881 298.728C189.458 297.597 190.746 296.125 191.642 294.426L191.725 294.071L186.047 287.807C183.723 285.243 181.258 282.325 181.349 278.903C181.394 277.215 182.078 275.585 182.036 273.894C181.945 272.68 181.668 271.487 181.213 270.354C180.701 268.861 179.999 267.179 178.475 266.68C176.562 266.05 174.632 267.704 173.718 269.461C172.897 271.082 172.498 272.876 172.556 274.683C172.614 276.49 173.128 278.256 174.052 279.823C175.157 281.649 176.855 283.26 177.149 285.365Z" fill="#E6E6E6"/>
<path d="M159.305 296.562C159.719 296.78 160.176 296.909 160.646 296.938C161.115 296.968 161.586 296.898 162.025 296.733C163.712 296.453 165.333 295.878 166.81 295.036C167.542 294.604 168.144 293.991 168.553 293.258C168.962 292.525 169.165 291.699 169.141 290.865C168.886 289.815 168.317 288.862 167.506 288.127C166.695 287.393 165.679 286.91 164.587 286.739C163.829 286.479 163.017 286.405 162.222 286.523C161.427 286.641 160.675 286.949 160.031 287.418C158.621 288.71 158.789 290.901 159.059 292.768L158.762 293.255C158.507 294.408 158.333 295.842 159.305 296.562Z" fill="#E6E6E6"/>
<path d="M457.237 432.559L456.009 429.579C455.448 430.928 455.656 432.308 457.237 432.559Z" fill="#E6E6E6"/>
<path d="M703.004 223.595C697.749 218.033 694.533 214.827 691.215 207.932C689.41 204.13 686.667 200.823 683.233 198.306C679.799 195.79 675.779 194.142 671.534 193.511C660.634 191.758 649.495 194.533 638.465 193.977C620.794 193.086 604.86 183.838 587.939 178.794C578.464 176.205 568.816 174.265 559.064 172.988L542.206 170.381C523.786 167.537 505.25 164.694 486.605 165.066C481.23 165.175 473.734 163.598 474.171 158.367C474.706 151.872 486.678 152.724 488.985 146.607C490.411 142.824 487 138.851 483.259 137.14C479.517 135.429 475.199 134.914 471.804 132.617C468.409 130.319 466.549 124.994 469.669 122.352L443.722 135.332C436.531 138.929 428.497 143.608 427.227 151.395C422.894 152.512 419.102 155.083 416.517 158.655C411.652 158.68 407.829 163.237 407.026 167.92C406.223 172.603 407.682 177.341 409.124 181.875C407.36 178.576 405.481 175.153 402.375 173C399.269 170.847 394.53 170.438 391.879 173.111C389.158 175.854 389.794 180.458 391.718 183.782C393.643 187.107 396.601 189.79 398.417 193.172C404.09 203.734 393.81 218.605 381.65 217.428C382.465 206.521 383.28 195.615 384.096 184.708C384.611 181.353 384.32 177.927 383.246 174.7C381.919 171.578 378.523 169.013 375.142 169.751C369.064 171.077 369.583 179.764 372.106 185.318C374.63 190.872 377.155 198.595 371.993 201.997C368.66 204.194 364.142 202.837 360.544 201.083C356.946 199.33 353.096 197.173 349.163 197.988C345.23 198.804 342.757 204.675 346.232 206.65L328.943 203.719C328.657 205.374 328.019 206.953 327.069 208.352C326.12 209.752 324.88 210.942 323.429 211.845C321.979 212.747 320.351 213.343 318.65 213.594C316.949 213.844 315.213 213.744 313.554 213.299L311.854 206.434L309.324 205.747C311.972 206.466 307.83 217.359 304.116 225.682C299.124 225.111 291.83 225.001 291.002 223.605C287.016 216.921 287.489 201 280.559 197.239C277.086 195.354 273.524 193.636 269.873 192.085C267.956 191.195 265.93 190.546 263.845 190.154C259.595 189.5 255.305 190.786 251.201 192.059C246.352 193.562 241.389 195.121 237.375 198.17C233.946 201.072 231.007 204.482 228.666 208.276L204.884 242.621C202.522 245.679 200.663 249.077 199.375 252.693C198.769 254.491 198.567 256.396 198.784 258.278C199 260.159 199.631 261.972 200.631 263.594C201.686 265.185 203.258 266.382 205.095 266.995C206.931 267.607 208.926 267.598 210.757 266.97C213.055 266 215.356 263.801 217.633 264.816C219.357 265.585 219.788 267.797 219.607 269.639C219.169 271.442 219.134 273.317 219.506 275.134C220.543 278.002 224.531 278.998 227.375 277.758C230.141 276.284 232.214 273.82 233.155 270.885C235.896 264.027 235.616 256.438 236.299 249.105C236.981 241.773 239.035 233.933 244.958 229.373C246.731 228.008 249.337 227.025 251.162 228.322C251.846 228.928 252.318 229.727 252.514 230.608C252.71 231.488 252.619 232.407 252.255 233.235C251.491 234.872 250.497 236.398 249.299 237.766C247.275 240.544 245.859 243.699 245.138 247.035C244.418 250.371 244.408 253.815 245.111 257.154L246.325 257.885C250.94 256.716 257.125 258.81 263.258 260.817C258.807 262.108 254.887 264.739 252.059 268.333C244.971 278.037 239.841 287.22 225.819 287.105C222.493 287.078 219.195 286.436 215.868 286.429C212.51 286.226 209.202 287.301 206.639 289.428C204.117 291.838 203.338 295.506 201.175 298.232C198.338 301.816 193.597 303.273 189.266 304.9C186.102 306.085 182.766 307.694 181.312 310.684C180.398 313.136 180.188 315.784 180.704 318.344C181.19 322.872 182.055 328.021 185.991 330.465C187.464 331.214 189.074 331.67 190.728 331.807C192.382 331.943 194.048 331.757 195.628 331.26C199.723 330.288 203.726 328.457 207.931 328.731C214.534 329.16 219.97 335.344 220.037 341.8C220.071 345.068 219.093 348.815 221.313 351.263C223.399 353.563 227.536 353.153 229.692 350.921C230.696 349.734 231.387 348.325 231.705 346.817C232.022 345.309 231.956 343.748 231.513 342.271C230.595 339.328 229.184 336.553 227.336 334.06C229.533 333.504 231.859 333.708 233.919 334.637C235.979 335.566 237.646 337.162 238.636 339.155C240.103 342.334 239.63 346.001 240.094 349.464C240.557 352.926 242.718 356.76 246.286 356.96C247.453 356.992 248.594 356.625 249.511 355.922C250.429 355.219 251.066 354.225 251.311 353.112C251.348 351.358 251.25 349.604 251.017 347.864C251.139 346.151 251.928 344.549 253.221 343.386C254.515 342.222 256.216 341.586 257.975 341.608C256.889 343.565 256.536 345.83 256.975 348.013C257.414 350.197 258.619 352.164 260.382 353.575C263.096 355.625 266.684 356.082 270.066 356.656C273.448 357.229 277.054 358.135 279.237 360.719C282.872 365.024 278.424 366.963 277.731 370.609C276.881 375.086 280.712 381.695 282.184 385.978L302.473 413.675C303.983 415.92 305.764 417.98 307.777 419.81C314.456 425.406 325.46 424.853 331.863 418.962C334.968 415.897 336.984 411.942 337.615 407.676C338.246 403.411 337.459 399.061 335.37 395.264C331.414 388.236 323.573 383.889 319.705 376.81C326.149 382.015 334.06 385.189 342.392 385.914C357.134 388.837 371.141 394.569 383.609 402.781C384.195 415.493 389.193 427.632 397.783 437.206C399.327 426.357 404.51 416.313 412.522 408.643C417.732 403.684 424.852 399.686 432.001 401.02C439.149 402.354 444.572 411.248 440.248 416.962L451.117 417.751L455.991 429.576C456.281 428.748 456.834 428.032 457.571 427.533C458.307 427.034 459.189 426.778 460.085 426.804C463.476 427.304 465.855 430.382 469.082 431.52C475.163 433.663 481.664 427.728 482.451 421.463C483.238 415.199 480.184 409.155 477.219 403.549C483.771 404.733 490.536 404.028 496.684 401.519C502.832 399.009 508.097 394.805 511.834 389.421C515.571 384.037 517.618 377.706 517.725 371.204C517.831 364.702 515.992 358.311 512.433 352.813C519.484 345.587 527.781 339.627 536.947 335.203C545.428 331.114 554.706 328.308 562.119 322.572C569.532 316.836 574.731 306.877 571.164 298.326C568.646 292.283 562.328 288.186 560.437 281.931C557.7 272.876 566.015 263.51 575.407 261.248C584.8 258.986 594.608 261.767 603.861 264.526C602.439 255.236 613.474 246.527 622.487 249.826L633.811 245.352C629.44 254.766 619.954 260.755 612.983 268.537C606.011 276.318 601.858 288.992 609.142 296.5L640.459 268.803L673.215 239.831L671.652 235.347C681.997 231.518 693.123 228.35 703.004 223.595Z" fill="#E6E6E6"/>
<path d="M160.796 347.851C160.375 348.443 160.151 349.148 160.154 349.869C160.158 350.59 160.389 351.292 160.817 351.88C161.377 352.345 162.086 352.604 162.822 352.614C163.557 352.624 164.274 352.383 164.847 351.933C165.967 350.999 166.841 349.817 167.397 348.485C167.939 349.509 168.791 350.345 169.837 350.879C170.883 351.414 172.073 351.621 173.244 351.474C175.583 351.13 177.799 350.228 179.695 348.849C181.2 347.988 182.528 346.863 183.613 345.531C184.149 344.86 184.518 344.077 184.689 343.242C184.86 342.408 184.829 341.546 184.597 340.725C184.033 339.467 183.157 338.365 182.047 337.519L173.761 330.054L172.825 329.78C172.338 329.274 171.751 328.87 171.099 328.591C170.448 328.312 169.745 328.164 169.034 328.157C168.323 328.149 167.617 328.282 166.96 328.547C166.302 328.813 165.707 329.205 165.209 329.701C163.493 331.574 163.486 334.374 163.752 336.873C164.017 339.372 164.422 342.035 163.282 344.287C162.632 345.576 161.525 346.599 160.796 347.851Z" fill="#E6E6E6"/>
<path d="M321.059 432.899C310.325 430.567 300.499 425.286 292.743 417.678C284.987 410.071 279.625 400.456 277.29 389.97C276.272 385.022 275.811 379.615 272.433 375.789C269.166 372.085 263.831 370.748 258.823 370.748C253.815 370.748 248.879 371.873 243.887 372.177C235.144 372.709 225.89 370.457 219.642 364.476C216.683 361.642 214.444 358.044 210.988 355.808C206.343 352.804 200.181 352.807 194.893 354.505C188.999 356.4 184.281 361.588 177.835 360.873C171.132 360.13 163.363 357.819 160.735 366.432C159.979 368.912 160.236 371.631 159.278 374.044C157.801 377.762 153.88 379.858 150.778 382.457C144.532 387.688 141.212 395.636 140.092 403.594C138.972 411.552 139.839 419.634 140.699 427.622C141.167 431.93 141.781 436.567 144.814 439.731C149.043 444.143 156.137 443.972 162.3 443.475L183.794 441.742C187.656 441.431 192.058 441.299 194.809 443.964C196.456 445.561 197.153 447.874 198.603 449.643C199.904 451.15 201.69 452.183 203.67 452.572C205.65 452.962 207.706 452.685 209.504 451.788C208.049 454.321 207.257 457.165 207.198 460.068C207.138 462.971 207.814 465.843 209.164 468.43C210.514 471.018 212.497 473.24 214.938 474.901C217.379 476.562 220.202 477.61 223.156 477.952L223.709 478.292C219.121 485.958 214.359 494.567 216.264 503.249C217.895 510.692 224.213 516.661 225.25 524.205C226.198 531.127 222.496 538.207 224.134 545.006C225.793 551.89 232.918 556.69 240.147 557.203C247.376 557.716 254.476 554.587 260.077 550.094C265.679 545.601 270.007 539.82 274.272 534.098C276.906 530.568 279.608 526.893 280.513 522.616C281.476 518.065 280.36 513.018 282.628 508.935C285.244 504.223 291.452 502.456 294.585 498.055C298.643 492.356 296.252 484.596 297.15 477.711C299.385 460.683 321.563 450.065 321.059 432.899Z" fill="#E6E6E6"/>
<path d="M317.855 491.06C317.248 493.72 314.698 495.472 312.269 496.811C309.841 498.15 307.162 499.5 305.922 501.942C304.653 504.444 305.232 507.425 305.897 510.14C307.278 515.788 308.904 521.371 310.777 526.89C314.407 520.197 317.576 513.276 320.263 506.173C321.401 503.528 322.103 500.725 322.344 497.866C322.456 496.436 322.258 494.998 321.765 493.646C321.272 492.294 320.495 491.058 319.482 490.018L317.855 491.06Z" fill="#E6E6E6"/>
<path d="M467.133 461.431L457.988 451.13C455.903 448.782 453.526 446.272 450.368 445.882L449.067 446.693L456.996 465.115C457.932 467.918 459.579 470.445 461.784 472.461C464.149 474.275 467.985 474.623 469.958 472.407C470.594 471.576 470.995 470.596 471.121 469.566C471.247 468.536 471.093 467.492 470.675 466.539C469.814 464.644 468.614 462.914 467.131 461.43L467.133 461.431Z" fill="#E6E6E6"/>
<path d="M496.668 468.006C497.821 467.615 498.877 466.995 499.769 466.183C500.661 465.372 501.37 464.388 501.85 463.293C502.794 461.102 503.418 458.792 503.703 456.43L505.266 447.207L504.584 447.036C503.922 446.727 503.168 446.661 502.46 446.853C501.753 447.044 501.14 447.48 500.736 448.078C499.968 449.299 499.388 450.623 499.012 452.008C498.819 452.7 498.468 453.341 497.986 453.882C497.503 454.423 496.902 454.85 496.226 455.133C493.78 455.853 491.463 453.324 488.909 453.422C487.877 453.55 486.92 454.015 486.195 454.742C485.469 455.469 485.017 456.415 484.913 457.425C484.765 459.463 485.357 461.488 486.585 463.143C488.762 466.441 492.803 469.091 496.668 468.006Z" fill="#E6E6E6"/>
<path d="M513.521 473.835L520.546 455.782C517.7 457.796 515.519 460.578 514.271 463.785C513.023 466.993 512.763 470.486 513.521 473.835Z" fill="#E6E6E6"/>
<path d="M549.37 459.287L547.949 459.346C547.314 460.572 546.977 461.923 546.964 463.296C546.95 464.669 547.261 466.027 547.872 467.264C549.118 469.73 550.932 471.881 553.171 473.55C556.641 476.345 560.602 478.503 564.861 479.92C571.108 481.698 577.566 482.669 584.071 482.808L595.227 483.518C596.999 483.637 599.29 483.412 599.782 481.748C600.189 480.374 598.989 479.082 597.868 478.159C588.029 470.08 576.102 464.798 563.392 462.89C558.569 462.17 553.458 461.876 549.37 459.287Z" fill="#E6E6E6"/>
<path d="M589.063 507.193L581.04 499.601C578.439 497.14 574.542 494.532 571.561 496.542C569.848 497.697 569.32 499.95 567.867 501.406C566.983 502.18 565.915 502.726 564.76 502.995C563.605 503.264 562.399 503.247 561.252 502.946C558.968 502.32 556.809 501.321 554.866 499.992L548.23 495.974L541.36 491.814L536.192 496.715C536.417 494.303 533.121 492.736 530.84 493.69C529.755 494.283 528.822 495.108 528.109 496.102C527.397 497.096 526.923 498.234 526.723 499.432C526.343 501.825 525.68 504.168 524.748 506.413C522.123 511.315 515.753 512.767 510.148 513.588C504.543 514.409 498.194 515.565 495.194 520.258C492.695 524.168 493.444 529.184 494.278 533.717L497.435 550.869C497.585 552.947 498.439 554.917 499.864 556.468C502.639 558.858 506.937 557.406 510.324 555.948C517.404 552.626 525.001 550.477 532.804 549.591C540.676 548.732 548.599 550.713 555.077 555.16C559.094 558.145 562.157 562.276 566.413 564.926C569.345 566.648 572.641 567.693 576.05 567.984C579.459 568.274 582.891 567.801 586.084 566.601C592.484 564.114 597.78 559.506 601.042 553.586C603.938 548.365 605.391 542.499 605.259 536.565C605.127 530.63 603.413 524.831 600.287 519.739C597.094 515.118 593.324 510.904 589.063 507.193Z" fill="#E6E6E6"/>
<path d="M581.178 577.072C580.536 577.832 580.16 578.773 580.106 579.757C580.052 580.74 580.323 581.715 580.878 582.538C582.043 584.167 583.82 585.283 585.822 585.643C587.806 585.99 589.827 586.08 591.834 585.912L591.895 584.449C591.36 581.881 590.146 579.493 588.374 577.524C586.437 575.728 583.014 575.176 581.178 577.072Z" fill="#E6E6E6"/>
<path d="M650.046 578.642L649.087 578.299L642.241 588.371C641.014 590.177 639.731 592.345 640.48 594.386C641.367 596.8 644.644 597.508 647.191 596.874C649.133 596.358 650.884 595.313 652.239 593.861C653.594 592.408 654.496 590.609 654.841 588.674C655.124 586.729 654.821 584.744 653.97 582.963C653.118 581.182 651.755 579.681 650.046 578.642Z" fill="#E6E6E6"/>
<path d="M667.447 567.986L661.148 563.098C661.067 565.365 660.983 567.632 660.895 569.9H660.658C662.111 571.143 663.483 572.474 664.765 573.884C666.24 575.108 668.714 575.662 669.975 574.24C670.352 573.727 670.566 573.117 670.59 572.485C670.614 571.854 670.447 571.23 670.111 570.691C669.417 569.625 668.512 568.705 667.447 567.986Z" fill="#E6E6E6"/>
<path d="M553.626 355.363C550.983 355.283 548.056 355.126 546.008 356.758C545.333 357.346 544.742 358.018 544.249 358.758L543.527 359.745C542.446 361.126 541.503 362.605 540.712 364.161C540.299 364.891 540.051 365.698 539.985 366.53C539.919 367.361 540.036 368.196 540.33 368.979C540.499 369.353 540.75 369.687 541.066 369.956C541.382 370.225 541.755 370.423 542.158 370.536C542.561 370.649 542.984 370.674 543.398 370.61C543.812 370.546 544.207 370.393 544.554 370.164C545.683 369.142 545.42 367.29 546.275 366.039C546.651 365.568 547.134 365.189 547.686 364.931C548.238 364.673 548.844 364.544 549.456 364.555C550.677 364.584 551.892 364.718 553.088 364.955C556.402 365.398 559.777 364.906 562.814 363.538C565.851 362.169 568.423 359.981 570.226 357.232C572.03 354.483 572.989 351.288 572.991 348.024C572.994 344.76 572.039 341.564 570.239 338.812L570.026 338.178C568.196 338.11 566.399 338.67 564.949 339.762C563.498 340.853 562.486 342.406 562.087 344.15C561.496 347.156 562.749 350.647 560.883 353.106C559.308 355.175 556.27 355.444 553.626 355.363Z" fill="#E6E6E6"/>
<path d="M577.289 323.499L576.886 323.464C574.522 323.886 572.252 324.711 570.182 325.902C569.503 326.209 568.96 326.746 568.654 327.414C568.564 327.768 568.566 328.138 568.659 328.491C568.752 328.845 568.934 329.17 569.187 329.437C569.701 329.966 570.302 330.407 570.965 330.741C571.953 331.385 573.045 331.861 574.195 332.151C574.772 332.29 575.376 332.287 575.952 332.143C576.527 331.998 577.057 331.716 577.493 331.321C577.902 330.773 578.184 330.144 578.317 329.478C578.451 328.813 578.434 328.127 578.267 327.468C578.078 326.116 577.75 324.786 577.288 323.499H577.289Z" fill="#E6E6E6"/>
<path d="M536.544 356.129C537.176 355.141 537.625 354.053 537.871 352.913L538.61 350.259L535.975 348.697C534.716 349.337 533.555 350.144 532.525 351.097C532.013 351.577 531.609 352.155 531.337 352.795C531.065 353.435 530.933 354.123 530.947 354.816C530.983 355.509 531.258 356.169 531.728 356.689C532.197 357.209 532.834 357.559 533.533 357.681C534.13 357.699 534.721 357.565 535.25 357.293C535.778 357.022 536.225 356.621 536.547 356.13L536.544 356.129Z" fill="#E6E6E6"/>
<path d="M249.475 117.016C248.433 117.65 248.727 119.182 249.15 120.307L250.607 124.182L251.286 121.674C251.882 120.702 252.144 119.569 252.036 118.441C251.802 117.338 250.455 116.424 249.475 117.016Z" fill="#E6E6E6"/>
<path d="M574.256 537.693C607.788 537.693 634.971 511.167 634.971 478.447C634.971 445.727 607.788 419.202 574.256 419.202C540.724 419.202 513.541 445.727 513.541 478.447C513.541 511.167 540.724 537.693 574.256 537.693Z" fill="#F59E0B"/>
<mask id="mask0_218_153" style="mask-type:luminance" maskUnits="userSpaceOnUse" x="513" y="419" width="122" height="119">
<path d="M574.256 537.693C607.788 537.693 634.971 511.167 634.971 478.447C634.971 445.727 607.788 419.202 574.256 419.202C540.724 419.202 513.541 445.727 513.541 478.447C513.541 511.167 540.724 537.693 574.256 537.693Z" fill="white"/>
</mask>
<g mask="url(#mask0_218_153)">
<path d="M590.183 475.921C590.995 473.337 591.057 470.584 590.362 467.968C589.668 465.352 588.243 462.975 586.248 461.101C584.253 459.227 581.764 457.929 579.058 457.352C576.353 456.775 573.536 456.941 570.921 457.831C568.307 458.721 565.996 460.301 564.246 462.396C562.495 464.49 561.374 467.017 561.007 469.695C560.64 472.374 561.04 475.1 562.164 477.569C563.288 480.039 565.092 482.157 567.375 483.687L558.23 506.054L603.159 502.34C603.159 502.34 580.391 490.417 580.104 485.654C582.478 484.971 584.641 483.725 586.4 482.026C588.159 480.327 589.458 478.23 590.183 475.921Z" fill="#ED9DA0"/>
<path d="M603.22 500.93L607.051 499.202C608.43 499.459 609.703 500.104 610.712 501.057C611.722 502.01 612.424 503.229 612.734 504.566C614.039 509.385 620 535.203 620 535.203C621.012 536.255 621.692 537.569 621.956 538.989C622.221 540.408 622.059 541.872 621.491 543.204C621.491 543.204 622.188 548.34 620 549.113C617.812 549.885 603.154 560.928 603.154 560.928L603.22 500.93Z" fill="#090814"/>
<path d="M591.679 494.203L581.775 488.317C579.491 499.408 567.707 500.017 565.423 488.928L558.137 494.204L542.764 499.204L545 557.364L576.207 557.277V557.364H604.815L607.051 499.204L591.679 494.203Z" fill="#090814"/>
<path d="M546.599 500.93L542.768 499.202C541.388 499.459 540.116 500.104 539.106 501.057C538.097 502.01 537.394 503.229 537.085 504.566C535.78 509.385 538.203 537.25 538.203 537.25C537.191 538.301 536.512 539.616 536.247 541.035C535.983 542.454 536.144 543.918 536.712 545.25C536.712 545.25 536.015 550.387 538.203 551.159C540.392 551.932 546.6 552.275 546.6 552.275L546.599 500.93Z" fill="#090814"/>
<path d="M561.726 465.429L560.588 476.752C560.588 476.752 548.652 454.153 563.491 449.974C563.491 449.974 562.046 448.064 564.143 447.429C566.24 446.793 586.129 443.746 587.714 453.246C587.714 453.246 598.104 459.526 594.96 466.252L591.255 474.155L587.901 474.337C587.901 474.337 587.806 459.288 582.68 459.791C577.553 460.293 561.726 465.429 561.726 465.429Z" fill="#090814"/>
</g>
<path d="M247.002 387.209C280.869 387.209 308.324 360.684 308.324 327.963C308.324 295.243 280.869 268.718 247.002 268.718C213.134 268.718 185.679 295.243 185.679 327.963C185.679 360.684 213.134 387.209 247.002 387.209Z" fill="#F59E0B"/>
<mask id="mask1_218_153" style="mask-type:luminance" maskUnits="userSpaceOnUse" x="185" y="268" width="124" height="120">
<path d="M247.002 387.209C280.869 387.209 308.324 360.684 308.324 327.963C308.324 295.243 280.869 268.718 247.002 268.718C213.134 268.718 185.679 295.243 185.679 327.963C185.679 360.684 213.134 387.209 247.002 387.209Z" fill="white"/>
</mask>
<g mask="url(#mask1_218_153)">
<path d="M239.154 334.455L238.547 344.115L257.032 345.029L251.308 332.302L239.154 334.455Z" fill="#ED9DA0"/>
<path d="M238.072 342.67C243.026 345.211 250.952 344.516 259.929 342.67L261.333 414.203C261.333 414.203 232.068 423.455 222.406 411.478L228.666 350.274L238.07 342.676L238.072 342.67Z" fill="#D6D6E3"/>
<path d="M254.294 338.951L267.619 346.653C270.073 348.07 271.973 350.245 273.02 352.833C274.066 355.422 274.2 358.276 273.398 360.947L263.1 395.27C263.1 395.27 279.87 423.385 274.422 425.865C262.176 431.434 243.902 430.083 243.902 430.083L247.985 362.768L254.3 338.951H254.294Z" fill="#3F3D58"/>
<path d="M238.651 342.416L223.583 348.128L220.024 390.548L210.057 424.718C226.935 430.73 225.357 427.929 225.357 427.929L228.15 368.969L238.642 342.427L238.651 342.416Z" fill="#3F3D58"/>
<path d="M216.643 423.991L216.694 423.754L232.096 354.238C232.276 353.474 232.3 352.681 232.167 351.907C232.033 351.133 231.745 350.393 231.318 349.728C230.891 349.062 230.334 348.486 229.678 348.031C229.023 347.576 228.282 347.251 227.498 347.075C226.714 346.899 225.903 346.876 225.109 347.006C224.316 347.137 223.557 347.418 222.875 347.835C222.194 348.251 221.603 348.795 221.136 349.435C220.67 350.074 220.337 350.797 220.157 351.562L203.237 419.431L216.639 423.995L216.643 423.991Z" fill="#3F3D58"/>
<path d="M247.173 337.021C255.455 337.021 262.17 330.469 262.17 322.387C262.17 314.305 255.455 307.753 247.173 307.753C238.89 307.753 232.176 314.305 232.176 322.387C232.176 330.469 238.89 337.021 247.173 337.021Z" fill="#ED9DA0"/>
<path d="M240.039 303.427C236.736 304.56 234.845 305.205 233.117 306.836C230.193 309.585 229.71 313.26 229.262 316.671C228.591 320.037 228.868 323.518 230.062 326.743C230.609 328.089 233.263 334.089 238.341 334.845C239.338 334.995 241.681 335.034 241.005 334.547C234.759 330.044 232.094 327.331 232.312 320.395C232.448 316.086 239.196 311.434 243.202 310.597C244.165 310.406 245.159 310.419 246.116 310.636C247.073 310.854 247.97 311.271 248.747 311.858C252.114 314.556 251.971 325.711 255.521 328.043C256.978 329.003 256.007 322.251 257.038 323.346C259.068 325.506 257.766 328.812 257.402 330.074C255.672 336.049 253.859 331.631 252.17 336.733C250.348 342.241 266.35 345.951 266.894 347.181C267.842 349.321 254.307 359.475 258.023 361.236C262.738 363.472 266.455 360.56 268.647 363.056C269.872 364.45 269.209 365.929 271.423 370.269C272.145 371.691 272.508 372.395 272.826 372.37C274.339 372.252 276.791 360.429 272.826 349.42C271.163 344.799 269.533 340.273 265.168 336.733C262.86 334.861 260.918 334.188 260.37 332.003C259.582 328.879 262.853 327.547 263.508 322.622C263.956 319.253 264.27 314.434 263.05 311.346C261.899 308.429 260.899 305.896 258.284 303.603C257.655 303.052 252.584 299.304 247.207 299.197C244.732 299.149 242.912 302.442 240.043 303.426L240.039 303.427Z" fill="#090814"/>
<path d="M263.25 347.088C265.542 346.772 267.871 347.317 269.766 348.614C271.661 349.911 272.981 351.861 273.458 354.071C276.906 370.068 283.096 404.158 273.375 404.726C265.006 405.073 256.628 404.323 248.464 402.495L251.514 385.38L261.428 384.388L255.599 357.773C255.337 356.577 255.33 355.342 255.578 354.143C255.826 352.945 256.325 351.809 257.042 350.807C257.76 349.804 258.681 348.957 259.749 348.317C260.817 347.677 262.008 347.259 263.249 347.088H263.25Z" fill="#3F3D58"/>
</g>
</g>
<defs>
<clipPath id="clip0_218_153">
<rect width="703" height="594" fill="white"/>
</clipPath>
</defs>
</svg>
