<svg xmlns="http://www.w3.org/2000/svg" xmlns:xlink="http://www.w3.org/1999/xlink" width="500" zoomAndPan="magnify" viewBox="0 0 375 374.999991" height="500" preserveAspectRatio="xMidYMid meet" version="1.0"><defs><clipPath id="8f39978b31"><path d="M 319 161 L 353.414062 161 L 353.414062 174 L 319 174 Z M 319 161 " clip-rule="nonzero"/></clipPath><clipPath id="49cd4dc827"><path d="M 21.328125 161 L 56 161 L 56 174 L 21.328125 174 Z M 21.328125 161 " clip-rule="nonzero"/></clipPath></defs><path fill="#ffffff" d="M 207.074219 368.921875 C 208.828125 361.355469 214.046875 356.730469 220.453125 356.730469 C 223.921875 356.730469 226.234375 353.824219 226.234375 350.917969 L 226.234375 324.226562 C 226.234375 320.722656 223.921875 318.410156 220.453125 318.410156 L 153.695312 318.410156 C 150.191406 318.410156 147.878906 320.722656 147.878906 324.226562 L 147.878906 350.917969 C 147.878906 353.824219 150.191406 356.730469 153.695312 356.730469 C 160.070312 356.730469 165.289062 361.355469 167.601562 368.921875 C 168.195312 371.234375 170.507812 373.542969 173.414062 373.542969 L 201.855469 373.542969 C 204.167969 372.949219 206.515625 371.234375 207.074219 368.921875 " fill-opacity="1" fill-rule="nonzero"/><path fill="#ffffff" d="M 270.367188 310.847656 C 273.242188 309.128906 273.835938 305.628906 272.679688 302.722656 L 261.050781 283 C 259.335938 280.09375 255.832031 279.53125 252.925781 280.6875 C 250.050781 282.40625 249.457031 285.90625 250.613281 288.78125 L 262.242188 308.535156 C 263.960938 312.035156 267.460938 312.597656 270.367188 310.847656 " fill-opacity="1" fill-rule="nonzero"/><path fill="#ffffff" d="M 331.316406 250.496094 C 333.066406 247.589844 331.910156 244.085938 329.003906 242.335938 L 309.25 230.742188 C 306.339844 228.988281 302.871094 230.144531 301.121094 233.085938 C 299.371094 235.960938 300.5625 239.460938 303.433594 241.179688 L 323.1875 252.808594 C 326.09375 253.964844 329.5625 253.367188 331.316406 250.496094 " fill-opacity="1" fill-rule="nonzero"/><g clip-path="url(#8f39978b31)"><path fill="#ffffff" d="M 353.382812 167.480469 C 353.382812 163.980469 351.035156 161.667969 347.566406 161.667969 L 324.9375 161.667969 C 321.4375 161.667969 319.125 163.980469 319.125 167.480469 C 319.125 170.949219 321.4375 173.296875 324.9375 173.296875 L 347.566406 173.296875 C 350.472656 173.296875 353.382812 170.386719 353.382812 167.480469 " fill-opacity="1" fill-rule="nonzero"/></g><path fill="#ffffff" d="M 309.25 103.628906 L 328.96875 92 C 331.875 90.28125 332.472656 86.78125 331.316406 83.875 C 329.5625 81 326.09375 80.40625 323.1875 81.5625 L 303.433594 93.15625 C 300.527344 94.90625 299.964844 98.410156 301.121094 101.28125 C 302.871094 104.222656 306.339844 105.378906 309.25 103.628906 " fill-opacity="1" fill-rule="nonzero"/><path fill="#ffffff" d="M 261.085938 51.367188 L 272.679688 31.648438 C 274.429688 28.742188 273.273438 25.273438 270.367188 23.523438 C 267.460938 21.769531 263.960938 22.925781 262.242188 25.832031 L 250.613281 45.589844 C 248.894531 48.460938 250.050781 51.964844 252.960938 53.679688 C 255.832031 54.871094 259.335938 54.277344 261.085938 51.367188 " fill-opacity="1" fill-rule="nonzero"/><path fill="#ffffff" d="M 193.136719 29.898438 L 193.136719 7.269531 C 193.136719 3.765625 190.824219 1.457031 187.355469 1.457031 C 183.851562 1.457031 181.539062 3.765625 181.539062 7.269531 L 181.539062 29.898438 C 181.539062 33.398438 183.851562 35.710938 187.355469 35.710938 C 190.824219 35.710938 193.136719 33.398438 193.136719 29.898438 " fill-opacity="1" fill-rule="nonzero"/><path fill="#ffffff" d="M 121.75 53.679688 C 124.65625 51.964844 125.21875 48.460938 124.09375 45.589844 L 112.46875 25.832031 C 110.71875 22.925781 107.25 22.367188 104.339844 23.523438 C 101.433594 25.273438 100.871094 28.742188 102.027344 31.648438 L 113.625 51.367188 C 115.375 54.277344 118.84375 54.871094 121.75 53.679688 " fill-opacity="1" fill-rule="nonzero"/><path fill="#ffffff" d="M 71.242188 93.75 L 51.519531 82.121094 C 48.613281 80.40625 45.113281 81.5625 43.394531 84.46875 C 41.644531 87.375 42.800781 90.84375 45.707031 92.59375 L 65.460938 104.1875 C 68.335938 105.941406 71.835938 104.785156 73.585938 101.878906 C 74.742188 98.96875 74.148438 95.5 71.242188 93.75 " fill-opacity="1" fill-rule="nonzero"/><g clip-path="url(#49cd4dc827)"><path fill="#ffffff" d="M 21.328125 167.480469 C 21.328125 170.949219 23.640625 173.296875 27.140625 173.296875 L 49.769531 173.296875 C 53.238281 173.296875 55.582031 170.949219 55.582031 167.480469 C 55.582031 163.980469 53.238281 161.667969 49.769531 161.667969 L 27.140625 161.667969 C 24.234375 161.667969 21.328125 163.980469 21.328125 167.480469 " fill-opacity="1" fill-rule="nonzero"/></g><path fill="#ffffff" d="M 65.460938 231.335938 L 45.707031 242.929688 C 42.800781 244.679688 42.238281 248.148438 43.394531 251.054688 C 45.144531 253.964844 48.613281 254.523438 51.519531 253.367188 L 71.242188 241.773438 C 74.148438 240.023438 74.742188 236.554688 73.585938 233.648438 C 71.835938 230.144531 68.367188 229.585938 65.460938 231.335938 " fill-opacity="1" fill-rule="nonzero"/><path fill="#ffffff" d="M 121.75 281.25 C 118.84375 279.5 115.375 280.6875 113.625 283.5625 L 102.027344 303.316406 C 100.277344 306.222656 101.433594 309.691406 104.339844 311.441406 C 107.25 313.191406 110.71875 312.003906 112.46875 309.128906 L 124.09375 289.375 C 125.21875 286.46875 124.09375 283 121.75 281.25 " fill-opacity="1" fill-rule="nonzero"/><path fill="#ffffff" d="M 196.042969 172.105469 C 196.042969 176.929688 192.144531 180.828125 187.355469 180.828125 C 182.53125 180.828125 178.632812 176.929688 178.632812 172.105469 C 178.632812 167.316406 182.53125 163.417969 187.355469 163.417969 C 192.144531 163.417969 196.042969 167.316406 196.042969 172.105469 " fill-opacity="1" fill-rule="nonzero"/><path fill="#ffffff" d="M 238.425781 123.945312 C 238.425781 128.734375 234.527344 132.664062 229.738281 132.664062 C 224.914062 132.664062 221.015625 128.734375 221.015625 123.945312 C 221.015625 119.121094 224.914062 115.222656 229.738281 115.222656 C 234.527344 115.222656 238.425781 119.121094 238.425781 123.945312 " fill-opacity="1" fill-rule="nonzero"/><path fill="#ffffff" d="M 147.878906 146.011719 C 147.878906 150.800781 143.980469 154.699219 139.160156 154.699219 C 134.367188 154.699219 130.472656 150.800781 130.472656 146.011719 C 130.472656 141.1875 134.367188 137.289062 139.160156 137.289062 C 143.980469 137.289062 147.878906 141.1875 147.878906 146.011719 " fill-opacity="1" fill-rule="nonzero"/><path fill="#ffffff" d="M 113.625 253.964844 C 132.785156 270.214844 144.972656 287.625 150.785156 306.785156 L 181.539062 306.785156 L 181.539062 275.433594 L 135.09375 230.742188 C 133.9375 229.585938 133.378906 227.867188 133.378906 226.679688 L 133.378906 165.730469 C 125.21875 163.417969 118.84375 155.292969 118.84375 146.570312 C 118.84375 135.539062 128.125 126.253906 139.160156 126.253906 C 150.191406 126.253906 159.472656 135.539062 159.472656 146.570312 C 159.472656 155.855469 153.097656 163.417969 144.972656 165.730469 L 144.972656 223.769531 L 181.539062 259.183594 L 181.539062 191.859375 C 173.414062 189.515625 167.039062 181.421875 167.039062 172.699219 C 167.039062 161.667969 176.320312 152.386719 187.355469 152.386719 C 198.386719 152.386719 207.671875 161.667969 207.671875 172.699219 C 207.671875 181.984375 201.261719 189.515625 193.136719 191.859375 L 193.136719 226.679688 L 223.921875 211.582031 L 223.921875 143.664062 C 215.796875 141.351562 209.421875 133.226562 209.421875 124.503906 C 209.421875 113.472656 218.703125 104.1875 229.738281 104.1875 C 240.738281 104.1875 250.050781 113.472656 250.050781 124.503906 C 250.050781 133.820312 243.644531 141.351562 235.515625 143.664062 L 235.515625 215.644531 C 235.515625 217.957031 234.363281 219.707031 232.050781 220.898438 L 193.136719 239.460938 L 193.136719 306.222656 L 223.921875 306.222656 C 229.738281 287.0625 242.488281 269.65625 261.648438 253.367188 C 288.339844 229.585938 302.277344 194.734375 298.214844 158.761719 C 292.996094 107.097656 251.769531 65.871094 200.105469 60.089844 C 196.042969 59.496094 191.417969 59.496094 187.355469 59.496094 C 125.8125 59.496094 76.460938 109.441406 76.460938 170.949219 C 75.898438 202.300781 89.839844 232.492188 113.625 253.964844 " fill-opacity="1" fill-rule="nonzero"/></svg>